<?xml version="1.0" encoding="utf-8"?><svg xmlns="http://www.w3.org/2000/svg" xmlns:xlink="http://www.w3.org/1999/xlink" width="1280" height="569" preserveAspectRatio="xMidYMid" viewBox="0 0 1280 569" style="z-index:1;margin-right:-2px;display:block;background-repeat-y:initial;background-repeat-x:initial;background-color:rgb(241, 242, 243);animation-play-state:paused" ><g transform="translate(640,284.5) scale(1,1) translate(-640,-284.5)" style="transform:matrix(1, 0, 0, 1, 0, 0);animation-play-state:paused" ><linearGradient id="lg-0.7623562346189627" x1="0" x2="1" y1="0" y2="0" style="animation-play-state:paused" ><stop stop-color="#5d35b0" offset="0" style="animation-play-state:paused" ></stop>

  
<stop stop-color="#c2c9c9" offset="1" style="animation-play-state:paused" ></stop></linearGradient>
<path d="M 0 0 L 0 538 Q 128 462.932 256 438.572 T 512 416.621 T 768 310.917 T 1024 234.033 T 1280 164.045 L 1280 0 Z" fill="url(#lg-0.7623562346189627)" opacity="0.4" style="opacity:0.4;animation-play-state:paused" ></path>
<path d="M 0 0 L 0 530.239 Q 128 494.988 256 470.583 T 512 444.673 T 768 364.965 T 1024 332.295 T 1280 277.047 L 1280 0 Z" fill="url(#lg-0.7623562346189627)" opacity="0.4" style="opacity:0.4;animation-play-state:paused" ></path>
<path d="M 0 0 L 0 496.159 Q 128 458.22 256 436.043 T 512 391.451 T 768 391.224 T 1024 339.401 T 1280 292.814 L 1280 0 Z" fill="url(#lg-0.7623562346189627)" opacity="0.4" style="opacity:0.4;animation-play-state:paused" ></path>
<path d="M 0 0 L 0 524.721 Q 128 456.161 256 425.478 T 512 388.445 T 768 403.05 T 1024 334.139 T 1280 213.547 L 1280 0 Z" fill="url(#lg-0.7623562346189627)" opacity="0.4" style="opacity:0.4;animation-play-state:paused" ></path>
<path d="M 0 0 L 0 513.267 Q 128 498.768 256 456.278 T 512 420.236 T 768 352.766 T 1024 312.158 T 1280 232.461 L 1280 0 Z" fill="url(#lg-0.7623562346189627)" opacity="0.4" style="opacity:0.4;animation-play-state:paused" ></path></g></svg>